<svg xmlns="http://www.w3.org/2000/svg" version="1.1" xmlns:xlink="http://www.w3.org/1999/xlink" xmlns:svgjs="http://svgjs.dev/svgjs" width="1000" height="1000" viewBox="0 0 1000 1000"><rect width="1000" height="1000" fill="#e8772e"></rect><g transform="matrix(0.7,0,0,0.7,150,106.25)"><svg viewBox="0 0 320 360" data-background-color="#e8772e" preserveAspectRatio="xMidYMid meet" height="1125" width="1000" xmlns="http://www.w3.org/2000/svg" xmlns:xlink="http://www.w3.org/1999/xlink"><g id="tight-bounds" transform="matrix(1,0,0,1,0,0)"><svg viewBox="0 0 320 360" height="360" width="320"><g><svg></svg></g><g><svg viewBox="0 0 320 360" height="360" width="320"><g><path xmlns="http://www.w3.org/2000/svg" d="M320 187.111c0-45.764-20.238-86.866-52.203-114.908-28.043-31.964-69.145-52.203-114.908-52.203-84.302 0-152.889 68.587-152.889 152.889 0 45.753 20.231 86.848 52.185 114.891 28.043 31.975 69.152 52.22 114.926 52.22 0.299 0 0.59-0.021 0.889-0.021 0.299 0 0.59 0.021 0.889 0.021 83.456 0 151.111-67.655 151.111-151.111 0-0.299-0.021-0.59-0.021-0.889 0-0.299 0.021-0.59 0.021-0.889zM59.833 263.097c-15.093-21.255-24.071-47.143-24.256-75.097 0.48-72.928 59.492-131.943 132.423-132.423 27.954 0.185 53.845 9.163 75.097 24.256 24.366 23.627 39.57 56.64 39.57 93.056 0 71.559-58.219 129.778-129.778 129.778-36.416 0-69.429-15.204-93.056-39.57zM3.556 172.889c0-82.343 66.99-149.333 149.333-149.333 35.051 0 67.292 12.167 92.8 32.462-22.98-13.824-49.863-21.796-78.578-21.796-84.302 0-152.889 68.587-152.889 152.889 0 28.708 7.968 55.584 21.785 78.56-20.288-25.5-32.452-57.739-32.451-92.782zM167.111 318.667c-35.84 0-68.363-14.418-92.107-37.743 21.952 15.89 48.864 25.298 77.885 25.298 73.522 0 133.333-59.812 133.333-133.333 0-29.02-9.408-55.932-25.298-77.885 23.324 23.744 37.742 56.267 37.743 92.107 0 72.54-59.015 131.556-131.556 131.556z" fill="#ffffff" fill-rule="nonzero" stroke="none" stroke-width="1" stroke-linecap="butt" stroke-linejoin="miter" stroke-miterlimit="10" stroke-dasharray="" stroke-dashoffset="0" font-family="none" font-weight="none" font-size="none" text-anchor="none" style="mix-blend-mode: normal" data-fill-palette-color="tertiary"></path></g><g transform="matrix(1,0,0,1,103.60053083709292,99)"><svg viewBox="0 0 112.79893832581415 162" height="162" width="112.79893832581415"><g><svg viewBox="0 0 192.95999999999998 277.1260125667887" height="162" width="112.79893832581415"><g><rect width="192.95999999999998" height="6.530247109217969" x="0" y="95.89688439267887" fill="#ffffff" opacity="1" stroke-width="0" stroke="transparent" fill-opacity="1" class="rect-o-0" data-fill-palette-color="primary" rx="1%" id="o-0" data-palette-color="#ffffff"></rect></g><g transform="matrix(1,0,0,1,0.47999999999998977,0)"><svg viewBox="0 0 192 78.80199667221298" height="78.80199667221298" width="192"><g><svg viewBox="0 0 192 78.80199667221298" height="78.80199667221298" width="192"><g><svg viewBox="0 0 192 78.80199667221298" height="78.80199667221298" width="192"><g transform="matrix(1,0,0,1,0,0)"><svg width="192" viewBox="4.899998188018799 -33.5 90.1500015258789 34" height="78.80199667221298" data-palette-color="#ffffff"><svg></svg><g class="undefined-text-0" data-fill-palette-color="primary" id="text-0"><path xmlns="http://www.w3.org/2000/svg" d="M4.9-33h12.7c2.367 0 4.41 0.417 6.13 1.25 1.713 0.833 3.053 2.017 4.02 3.55 0.967 1.533 1.45 3.383 1.45 5.55v0c0 2.133-0.483 3.973-1.45 5.52-0.967 1.553-2.307 2.747-4.02 3.58-1.72 0.833-3.763 1.25-6.13 1.25v0h-7.35v12.3h-5.35zM10.25-16.9h6.5c2.367 0 4.11-0.493 5.23-1.48 1.113-0.98 1.67-2.403 1.67-4.27v0c0-1.9-0.557-3.343-1.67-4.33-1.12-0.98-2.863-1.47-5.23-1.47v0h-6.5zM58.5-10.45l5.1 1.7c-0.667 2-1.667 3.69-3 5.07-1.333 1.387-2.9 2.43-4.7 3.13-1.8 0.7-3.783 1.05-5.95 1.05v0c-3.167 0-5.917-0.683-8.25-2.05-2.333-1.367-4.133-3.317-5.4-5.85-1.267-2.533-1.9-5.567-1.9-9.1v0c0-3.533 0.633-6.567 1.9-9.1 1.267-2.533 3.067-4.483 5.4-5.85 2.333-1.367 5.067-2.05 8.2-2.05v0c2.167 0 4.127 0.3 5.88 0.9 1.747 0.6 3.237 1.5 4.47 2.7 1.233 1.2 2.183 2.7 2.85 4.5v0l-5.05 2.25c-0.667-1.967-1.633-3.41-2.9-4.33-1.267-0.913-2.917-1.37-4.95-1.37v0c-2.033 0-3.817 0.483-5.35 1.45-1.533 0.967-2.723 2.367-3.57 4.2-0.853 1.833-1.28 4.067-1.28 6.7v0c0 2.6 0.4 4.823 1.2 6.67 0.8 1.853 1.95 3.263 3.45 4.23 1.5 0.967 3.3 1.45 5.4 1.45v0c2.033 0 3.793-0.527 5.28-1.58 1.48-1.047 2.537-2.62 3.17-4.72zM81.7-33.5v0c2.967 0 5.533 0.557 7.7 1.67 2.167 1.12 4 2.763 5.5 4.93v0l-3.6 3.45c-1.267-1.933-2.69-3.327-4.27-4.18-1.587-0.847-3.463-1.27-5.63-1.27v0c-1.6 0-2.917 0.217-3.95 0.65-1.033 0.433-1.79 1.007-2.27 1.72-0.487 0.72-0.73 1.53-0.73 2.43v0c0 1.033 0.36 1.933 1.08 2.7 0.713 0.767 2.053 1.367 4.02 1.8v0l6.7 1.5c3.2 0.7 5.467 1.767 6.8 3.2 1.333 1.433 2 3.25 2 5.45v0c0 2.033-0.55 3.8-1.65 5.3-1.1 1.5-2.623 2.65-4.57 3.45-1.953 0.8-4.247 1.2-6.88 1.2v0c-2.333 0-4.433-0.3-6.3-0.9-1.867-0.6-3.5-1.417-4.9-2.45-1.4-1.033-2.55-2.217-3.45-3.55v0l3.7-3.7c0.7 1.167 1.583 2.207 2.65 3.12 1.067 0.92 2.31 1.63 3.73 2.13 1.413 0.5 2.987 0.75 4.72 0.75v0c1.533 0 2.86-0.183 3.98-0.55 1.113-0.367 1.963-0.91 2.55-1.63 0.58-0.713 0.87-1.57 0.87-2.57v0c0-0.967-0.323-1.817-0.97-2.55-0.653-0.733-1.863-1.3-3.63-1.7v0l-7.25-1.65c-2-0.433-3.65-1.05-4.95-1.85-1.3-0.8-2.267-1.777-2.9-2.93-0.633-1.147-0.95-2.437-0.95-3.87v0c0-1.867 0.51-3.56 1.53-5.08 1.013-1.513 2.487-2.73 4.42-3.65 1.933-0.913 4.233-1.37 6.9-1.37z" fill="#ffffff" fill-rule="nonzero" stroke="none" stroke-width="1" stroke-linecap="butt" stroke-linejoin="miter" stroke-miterlimit="10" stroke-dasharray="" stroke-dashoffset="0" font-family="none" font-weight="none" font-size="none" text-anchor="none" style="mix-blend-mode: normal" data-fill-palette-color="primary" opacity="1"></path></g></svg></g></svg></g></svg></g></svg></g><g transform="matrix(1,0,0,1,17.68351853333718,119.52201922236273)"><svg viewBox="0 0 157.59296293332562 157.60399334442596" height="157.60399334442596" width="157.59296293332562"><g><svg xmlns="http://www.w3.org/2000/svg" xmlns:xlink="http://www.w3.org/1999/xlink" version="1.1" x="0" y="0" viewBox="0 0 99.95500183105469 99.96199798583984" enable-background="new 0 0 99.956 99.962" xml:space="preserve" width="157.59296293332562" height="157.60399334442596" class="icon-icon-0" data-fill-palette-color="accent" id="icon-0"><g fill="#ffffff" data-fill-palette-color="accent"><path d="M49.984 0C22.384 0.008 0.01 22.375 0 49.98c0.01 27.606 22.384 49.975 49.984 49.982 27.605-0.008 49.971-22.376 49.971-49.982C99.956 22.375 77.589 0.008 49.984 0zM8.014 49.98c0.018-8.941 2.838-17.206 7.602-24.007 0.039 3.958 1.506 8.964 6.333 14.757 5.609 6.728 11.495 9.536 20.753 15.144 9.253 5.602 7.846 8.128 5.597 10.655-2.241 2.52-7.564 11.765 0.841 16.818 6.478 3.88 7.581 4.2 6.454 7.564-0.081 0.246-0.17 0.422-0.256 0.649-1.756 0.227-3.533 0.383-5.352 0.388C26.808 91.91 8.057 73.163 8.014 49.98zM68.676 87.493c1.898-2.8 3.933-6.535 5.69-11.436 3.936-10.928 5.891-25.229-1.674-23.546-6.665 1.479-14.855 3.081-18.789 3.638-3.919 0.562-8.688-3.364-14.011-6.165-5.323-2.801-8.409-7.573-4.209-10.654 4.209-3.082 12.614 7.572 15.427 4.208 2.793-3.364 0.844-6.454 4.481-13.736 3.642-7.291 3.989-5.953 6.728-12.055 1.379-3.076 1.111-5.707 0.25-7.791 17.015 5.358 29.349 21.23 29.382 40.023C91.922 66.431 82.445 80.614 68.676 87.493z" fill="#ffffff" data-fill-palette-color="accent"></path></g></svg></g></svg></g><g></g></svg></g></svg></g></svg></g><defs></defs></svg><rect width="320" height="360" fill="none" stroke="none" visibility="hidden"></rect></g></svg></g></svg>